#!OML:ASF H:\Martial Arts Walks\Project 1\Capture day 1\Session 1\male.ASF
:FULLY-SPECIFIED
:DEGREES
4552
root -1.57128 14.0047 -13.9238 -713.756 44.0022 -356.827
lowerback 17.3436 0.0769306 -9.70833
upperback -2.13579 -1.80202 1.62071
thorax -11.8662 -0.116281 7.8522
lowerneck 3.98268 -13.6687 -13.4444
upperneck -1.45254 -18.8141 13.0779
head 1.44593 -9.51389 5.57695
rclavicle 3.58558e-014 1.95803e-014
rhumerus 4.75237 -14.1519 -65.9552
rradius 82.9104
rwrist 35.0522
rhand -33.0939 -417.197
rfingers 7.12502
rthumb -6.30486 1712.92
lclavicle 3.58558e-014 1.95803e-014
lhumerus -231.459 228.854 -62.8925
lradius 112.43
lwrist 86.1989
lhand 17.4401 757.846
lfingers 7.12502
lthumb 42.1433 1142.39
rfemur -58.7457 -27.6011 11.5211
rtibia 77.8851
rfoot -19.3569 -0.200016
rtoes -12.713
lfemur -32.8367 27.8836 -9.86956
ltibia 77.99
lfoot -23.7774 15.5534
ltoes 28.2443
4553
root -1.57809 14.0006 -13.9284 -713.773 44.0701 -356.886
lowerback 17.3663 0.0440987 -9.69232
upperback -2.14975 -1.84059 1.66293
thorax -11.8864 -0.131726 7.9028
lowerneck 3.98166 -13.6543 -13.4731
upperneck -1.55512 -18.7894 13.1194
head 1.41955 -9.50202 5.5986
rclavicle -9.91314e-014 -1.5207e-014
rhumerus 4.78746 -14.0975 -65.9114
rradius 82.9234
rwrist 35.0825
rhand -33.0548 -417.107
rfingers 7.12502
rthumb -6.26714 1713.01
lclavicle -9.91314e-014 -1.5207e-014
lhumerus -231.424 228.772 -62.8959
lradius 112.454
lwrist 86.201
lhand 17.8854 758.042
lfingers 7.12502
lthumb 42.5603 1142.44
rfemur -58.833 -27.5586 11.5869
rtibia 77.8795
rfoot -18.9068 -0.514818
rtoes -12.8639
lfemur -32.9793 27.8263 -9.84636
ltibia 78.0831
lfoot -23.7386 15.5666
ltoes 28.1923
4554
root -1.58411 13.9963 -13.9352 -713.848 44.1702 -357.027
lowerback 17.3958 0.00682813 -9.54417
upperback -2.14926 -1.85838 1.68648
thorax -11.9012 -0.148223 7.85002
lowerneck 3.97023 -13.6866 -13.4428
upperneck -1.65739 -18.8237 13.1545
head 1.3965 -9.5194 5.60518
rclavicle -7.12892e-014 -3.37934e-015
rhumerus 4.80005 -14.1136 -65.8594
rradius 82.9734
rwrist 35.0164
rhand -33.0326 -417.023
rfingers 7.12502
rthumb -6.24573 1713.09
lclavicle -7.12892e-014 -3.37934e-015
lhumerus -231.408 228.797 -62.8965
lradius 112.488
lwrist 86.1739
lhand 18.3105 757.834
lfingers 7.12502
lthumb 42.958 1142.09
rfemur -58.905 -27.5467 11.7078
rtibia 77.871
rfoot -18.516 -0.719609
rtoes -12.9003
lfemur -33.1536 27.7231 -9.77273
ltibia 78.1958
lfoot -23.7312 15.5638
ltoes 28.2102
4555
root -1.59075 13.9922 -13.941 -713.953 44.2336 -357.181
lowerback 17.4302 -0.0257318 -9.41986
upperback -2.1375 -1.87364 1.72041
thorax -11.9056 -0.162499 7.82209
lowerneck 4.00643 -13.6749 -13.4699
upperneck -1.79611 -18.8049 13.2483
head 1.3596 -9.51243 5.64543
rclavicle -7.63706e-014 -2.22639e-014
rhumerus 4.84779 -14.0878 -65.8023
rradius 82.9866
rwrist 34.903
rhand -33.152 -417.112
rfingers 7.12502
rthumb -6.36099 1713
lclavicle -7.63706e-014 -2.22639e-014
lhumerus -231.421 228.794 -62.902
lradius 112.551
lwrist 86.0955
lhand 18.3905 757.606
lfingers 7.12502
lthumb 43.0329 1141.84
rfemur -58.9396 -27.4651 11.8144
rtibia 77.8604
rfoot -18.1808 -0.905231
rtoes -12.9116
lfemur -33.28 27.6632 -9.67238
ltibia 78.3077
lfoot -23.732 15.5451
ltoes 28.2408
4556
root -1.59713 13.9877 -13.9481 -714.046 44.2852 -357.315
lowerback 17.4763 -0.043574 -9.29027
upperback -2.12977 -1.87169 1.73464
thorax -11.926 -0.168745 7.7648
lowerneck 4.0548 -13.7044 -13.3731
upperneck -1.91613 -18.8358 13.1877
head 1.30541 -9.52947 5.62237
rclavicle -1.18563e-013 3.83654e-014
rhumerus 4.85897 -14.1052 -65.7581
rradius 83.0127
rwrist 34.7668
rhand -33.2676 -417.118
rfingers 7.12502
rthumb -6.4726 1713
lclavicle -1.18563e-013 3.83654e-014
lhumerus -231.485 228.841 -62.8886
lradius 112.619
lwrist 86.0385
lhand 18.6284 757.413
lfingers 7.12502
lthumb 43.2553 1141.57
rfemur -58.9778 -27.3686 11.8962
rtibia 77.8488
rfoot -17.8633 -1.08561
rtoes -13.0685
lfemur -33.4117 27.5903 -9.5958
ltibia 78.427
lfoot -23.7051 15.5536
ltoes 28.2446
4557
root -1.60306 13.9836 -13.9572 -714.151 44.326 -357.428
lowerback 17.5452 -0.0666936 -9.16745
upperback -2.09352 -1.87839 1.75282
thorax -11.9246 -0.180737 7.71828
lowerneck 4.10871 -13.699 -13.3976
upperneck -2.09819 -18.824 13.2759
head 1.25307 -9.52668 5.66346
rclavicle 2.67117e-015 -4.17448e-015
rhumerus 4.9362 -14.1037 -65.7027
rradius 83.0048
rwrist 34.6589
rhand -33.1209 -417.212
rfingers 7.12502
rthumb -6.33094 1712.9
lclavicle 2.67117e-015 -4.17448e-015
lhumerus -231.433 228.887 -62.8807
lradius 112.627
lwrist 85.927
lhand 18.8044 757.354
lfingers 7.12502
lthumb 43.4197 1141.45
rfemur -58.9819 -27.2745 11.9437
rtibia 77.8303
rfoot -17.5021 -1.25671
rtoes -13.104
lfemur -33.5129 27.4977 -9.53893
ltibia 78.5345
lfoot -23.6843 15.6087
ltoes 28.2324
